<svg width="24" height="25" viewBox="0 0 24 25" fill="none" xmlns="http://www.w3.org/2000/svg">
<path opacity="0.4" fill-rule="evenodd" clip-rule="evenodd" d="M21 0.726074H3C1.3455 0.726074 0 2.07157 0 3.72607V21.7261C0 23.3806 1.3455 24.7261 3 24.7261H12V16.4761H9V12.7261H12V9.72607C12 8.5326 12.4741 7.38801 13.318 6.54409C14.1619 5.70018 15.3065 5.22607 16.5 5.22607H19.5V8.97607H18C17.172 8.97607 16.5 8.89807 16.5 9.72607V12.7261H20.25L18.75 16.4761H16.5V24.7261H21C22.6545 24.7261 24 23.3806 24 21.7261V3.72607C24 2.07157 22.6545 0.726074 21 0.726074Z" fill="white"/>
</svg>
