<svg width="24" height="25" viewBox="0 0 24 25" fill="none" xmlns="http://www.w3.org/2000/svg">
<g opacity="0.4">
<path d="M12 2.89475C15.1807 2.89475 15.6145 2.89475 16.9157 2.89475C18.0723 2.89475 18.6506 3.18391 19.0843 3.32848C19.6627 3.61764 20.0964 3.76222 20.5301 4.19595C20.9639 4.62969 21.253 5.06342 21.3976 5.64174C21.5422 6.07547 21.6867 6.65379 21.8313 7.81041C21.8313 9.11162 21.8313 9.40077 21.8313 12.7261C21.8313 16.0514 21.8313 16.3405 21.8313 17.6417C21.8313 18.7984 21.5422 19.3767 21.3976 19.8104C21.1084 20.3887 20.9639 20.8225 20.5301 21.2562C20.0964 21.6899 19.6627 21.9791 19.0843 22.1237C18.6506 22.2682 18.0723 22.4128 16.9157 22.5574C15.6145 22.5574 15.3253 22.5574 12 22.5574C8.6747 22.5574 8.38554 22.5574 7.08434 22.5574C5.92771 22.5574 5.3494 22.2682 4.91566 22.1237C4.33735 21.8345 3.90362 21.6899 3.46988 21.2562C3.03615 20.8225 2.74699 20.3887 2.60241 19.8104C2.45783 19.3767 2.31325 18.7984 2.16867 17.6417C2.16867 16.3405 2.16867 16.0514 2.16867 12.7261C2.16867 9.40077 2.16867 9.11162 2.16867 7.81041C2.16867 6.65379 2.45783 6.07547 2.60241 5.64174C2.89157 5.06342 3.03615 4.62969 3.46988 4.19595C3.90362 3.76222 4.33735 3.47306 4.91566 3.32848C5.3494 3.18391 5.92771 3.03933 7.08434 2.89475C8.38554 2.89475 8.81928 2.89475 12 2.89475ZM12 0.726074C8.6747 0.726074 8.38554 0.726074 7.08434 0.726074C5.78313 0.726074 4.91566 1.01523 4.19277 1.30439C3.46988 1.59354 2.74699 2.02728 2.0241 2.75017C1.30121 3.47306 1.01205 4.05138 0.578314 4.91885C0.289157 5.64174 0.144578 6.50921 0 7.81041C0 9.11162 0 9.54535 0 12.7261C0 16.0514 0 16.3405 0 17.6417C0 18.9429 0.289157 19.8104 0.578314 20.5333C0.867471 21.2562 1.30121 21.9791 2.0241 22.702C2.74699 23.4249 3.3253 23.714 4.19277 24.1478C4.91566 24.4369 5.78313 24.5815 7.08434 24.7261C8.38554 24.7261 8.81928 24.7261 12 24.7261C15.1807 24.7261 15.6145 24.7261 16.9157 24.7261C18.2169 24.7261 19.0843 24.4369 19.8072 24.1478C20.5301 23.8586 21.253 23.4249 21.9759 22.702C22.6988 21.9791 22.988 21.4008 23.4217 20.5333C23.7108 19.8104 23.8554 18.9429 24 17.6417C24 16.3405 24 15.9068 24 12.7261C24 9.54535 24 9.11162 24 7.81041C24 6.50921 23.7108 5.64174 23.4217 4.91885C23.1325 4.19595 22.6988 3.47306 21.9759 2.75017C21.253 2.02728 20.6747 1.73812 19.8072 1.30439C19.0843 1.01523 18.2169 0.870653 16.9157 0.726074C15.6145 0.726074 15.3253 0.726074 12 0.726074Z" fill="white"/>
<path d="M12 6.50921C8.53012 6.50921 5.78313 9.2562 5.78313 12.7261C5.78313 16.196 8.53012 18.9429 12 18.9429C15.4699 18.9429 18.2169 16.196 18.2169 12.7261C18.2169 9.2562 15.4699 6.50921 12 6.50921ZM12 16.7743C9.83133 16.7743 7.95181 15.0393 7.95181 12.7261C7.95181 10.5574 9.68675 8.67788 12 8.67788C14.1687 8.67788 16.0482 10.4128 16.0482 12.7261C16.0482 14.8948 14.1687 16.7743 12 16.7743Z" fill="white"/>
<path d="M18.3614 7.81041C19.1599 7.81041 19.8072 7.16311 19.8072 6.36463C19.8072 5.56615 19.1599 4.91885 18.3614 4.91885C17.563 4.91885 16.9157 5.56615 16.9157 6.36463C16.9157 7.16311 17.563 7.81041 18.3614 7.81041Z" fill="white"/>
</g>
</svg>
