<svg width="32" height="24" viewBox="0 0 32 24" fill="none" xmlns="http://www.w3.org/2000/svg">
<path opacity="0.4" d="M31.2 4.25854C30.8 2.804 29.8 1.76504 28.4 1.34945C26 0.726075 15.8 0.726074 15.8 0.726074C15.8 0.726074 5.80001 0.726075 3.20001 1.34945C1.80001 1.76504 0.799994 2.804 0.399994 4.25854C-6.10948e-06 6.95984 0 12.3624 0 12.3624C0 12.3624 6.07967e-06 17.765 0.600006 20.4663C1.00001 21.9209 1.99999 22.9598 3.39999 23.3754C5.79999 23.9988 16 23.9988 16 23.9988C16 23.9988 26 23.9988 28.6 23.3754C30 22.9598 31 21.9209 31.4 20.4663C32 17.765 32 12.3624 32 12.3624C32 12.3624 32 6.95984 31.2 4.25854ZM12.8 17.3495V7.37543L21.2 12.3624L12.8 17.3495Z" fill="white"/>
</svg>
